<svg width="256" height="56" viewBox="0 0 256 56" fill="none" xmlns="http://www.w3.org/2000/svg">
<g clip-path="url(#clip0)">
<path d="M2.08 12.75L23.36 1.08C23.9598 0.749978 24.6343 0.579429 25.3189 0.584682C26.0035 0.589935 26.6753 0.770813 27.27 1.11L48 12.96C48.6089 13.3116 49.1145 13.8175 49.4656 14.4267C49.8167 15.0359 50.001 15.7269 50 16.43V39.97C50.0003 40.6842 49.8095 41.3854 49.4472 42.0009C49.085 42.6164 48.5645 43.1236 47.94 43.47L27.24 54.94C26.653 55.2652 25.9936 55.4374 25.3226 55.4409C24.6515 55.4444 23.9904 55.279 23.4 54.96L2.1 43.46C1.46501 43.1172 0.934571 42.6091 0.564873 41.9894C0.195174 41.3697 -1.02494e-05 40.6616 4.03672e-10 39.94L4.03673e-10 16.26C0.00162564 15.5438 0.195501 14.8412 0.56138 14.2256C0.927259 13.6099 1.45172 13.1038 2.08 12.76V12.75Z" fill="url(#paint0_linear)"/>
<path d="M41.2973 37.2324C39.2187 40.9107 30.2372 39.7143 21.2364 34.5602C12.2357 29.4061 6.62414 22.246 8.70271 18.5677C10.7813 14.8894 19.7628 16.0857 28.7636 21.2398C37.7643 26.394 43.3758 33.5541 41.2973 37.2324Z" stroke="white" stroke-width="1.5"/>
<path d="M41.2973 18.4677C39.2187 14.7893 30.2372 15.9857 21.2364 21.1398C12.2357 26.2939 6.62414 33.454 8.70271 37.1323C10.7813 40.8107 19.7628 39.6143 28.7636 34.4602C37.7643 29.3061 43.3758 22.146 41.2973 18.4677Z" stroke="white" stroke-width="1.5"/>
<path d="M25.07 8.98C20.8671 8.98 17.46 17.4284 17.46 27.85C17.46 38.2716 20.8671 46.72 25.07 46.72C29.2729 46.72 32.68 38.2716 32.68 27.85C32.68 17.4284 29.2729 8.98 25.07 8.98Z" stroke="white" stroke-width="1.5"/>
<path d="M28.04 27.72C28.04 26.03 26.6789 24.66 25 24.66C23.321 24.66 21.96 26.03 21.96 27.72C21.96 29.41 23.321 30.78 25 30.78C26.6789 30.78 28.04 29.41 28.04 27.72Z" fill="white"/>
<path d="M74.06 18.4C76.86 18.4 78.99 18.91 80.46 19.94C81.96 20.97 82.71 22.54 82.71 24.64C82.71 27.28 81.41 29.06 78.81 29.99C80.2771 31.8099 81.5884 33.7501 82.73 35.79C83.17 36.53 83.55 37.27 83.89 38H79.94C79.2177 36.6216 78.4163 35.286 77.54 34C77.12 33.34 76.71 32.74 76.3 32.18C75.89 31.6 75.5 31.08 75.15 30.64L74.48 30.66H72.24V38H68.7V18.88C69.56 18.68 70.47 18.57 71.44 18.51C72.305 18.4405 73.1723 18.4038 74.04 18.4H74.06ZM74.31 21.45C73.56 21.45 72.87 21.48 72.24 21.54V27.81H73.78C74.64 27.81 75.39 27.76 76.05 27.67C76.7 27.57 77.24 27.41 77.67 27.17C78.12 26.92 78.45 26.59 78.67 26.18C78.9 25.78 79.01 25.25 79.01 24.62C79.01 24.02 78.91 23.52 78.68 23.1C78.4536 22.6865 78.1135 22.3464 77.7 22.12C77.29 21.88 76.8 21.72 76.21 21.62C75.63 21.51 75 21.45 74.31 21.45V21.45ZM84.38 30.75C84.38 29.46 84.57 28.33 84.94 27.36C85.34 26.39 85.84 25.59 86.48 24.96C87.0946 24.3383 87.8265 23.8449 88.6334 23.5085C89.4402 23.172 90.3058 22.9992 91.18 23C93.2 23 94.77 23.62 95.88 24.87C97.03 26.12 97.6 27.99 97.6 30.47L97.57 31.11C97.57 31.34 97.56 31.54 97.54 31.73H87.88C87.98 32.9 88.38 33.82 89.11 34.47C89.86 35.11 90.93 35.42 92.33 35.42C93.6529 35.4361 94.9666 35.1985 96.2 34.72L96.64 37.5C96.0404 37.7863 95.399 37.9754 94.74 38.06C93.811 38.2666 92.8616 38.3672 91.91 38.36C90.62 38.36 89.51 38.18 88.55 37.8C87.6579 37.4472 86.8552 36.9007 86.2 36.2C85.5815 35.5039 85.1149 34.6865 84.83 33.8C84.5228 32.8128 84.3709 31.7838 84.38 30.75V30.75ZM94.21 29.24C94.21 28.77 94.14 28.34 94.01 27.92C93.88 27.49 93.68 27.12 93.42 26.82C93.1782 26.507 92.8619 26.2595 92.5 26.1C92.0994 25.9025 91.6564 25.8064 91.21 25.82C90.5447 25.8117 89.8942 26.0171 89.3542 26.4059C88.8143 26.7947 88.4132 27.3464 88.21 27.98C88.07 28.38 87.96 28.81 87.91 29.24H94.21V29.24ZM105.08 35.62C106.13 35.62 106.92 35.56 107.46 35.45V31.7C106.813 31.5162 106.142 31.4319 105.47 31.45C105.1 31.45 104.72 31.48 104.32 31.53C103.963 31.5826 103.616 31.687 103.29 31.84C102.99 31.99 102.75 32.2 102.56 32.48C102.37 32.75 102.28 33.08 102.28 33.49C102.28 34.29 102.53 34.85 103.04 35.17C103.668 35.4981 104.372 35.6533 105.08 35.62ZM104.8 22.99C105.761 22.9651 106.718 23.1072 107.63 23.41C108.316 23.6314 108.934 24.0254 109.424 24.5543C109.915 25.0831 110.261 25.729 110.43 26.43C110.63 27.15 110.73 27.93 110.73 28.79V37.66C110.21 37.78 109.42 37.91 108.36 38.06C107.31 38.22 106.13 38.31 104.8 38.31C103.92 38.31 103.12 38.22 102.4 38.06C101.725 37.9142 101.086 37.6354 100.52 37.24C100.01 36.859 99.599 36.3619 99.32 35.79C99.017 35.0936 98.8702 34.3392 98.89 33.58C98.89 32.74 99.05 32.03 99.37 31.45C99.7 30.87 100.15 30.4 100.71 30.05C101.296 29.6638 101.951 29.3954 102.64 29.26C104.23 28.9078 105.879 28.9283 107.46 29.32V28.76C107.46 28.36 107.41 27.99 107.32 27.64C107.22 27.29 107.06 26.98 106.82 26.72C106.59 26.44 106.28 26.22 105.89 26.07C105.431 25.9079 104.946 25.8333 104.46 25.85C103.189 25.8495 101.925 26.0382 100.71 26.41L100.29 23.66C101.746 23.2045 103.264 22.9784 104.79 22.99H104.8ZM112.81 30.69C112.81 29.61 112.98 28.6 113.31 27.67C113.622 26.7598 114.112 25.9204 114.75 25.2C115.38 24.51 116.15 23.97 117.05 23.58C117.94 23.18 118.95 22.99 120.07 22.99C121.45 22.99 122.75 23.24 123.99 23.75L123.26 26.52C122.335 26.1326 121.343 25.9321 120.34 25.93C119.02 25.93 118.01 26.35 117.32 27.19C116.63 28.01 116.29 29.18 116.29 30.69C116.29 32.15 116.61 33.31 117.26 34.16C117.92 35 119.02 35.42 120.56 35.42C121.644 35.4258 122.719 35.2291 123.73 34.84L124.21 37.64C123.83 37.82 123.27 37.99 122.51 38.14C121.75 38.29 120.98 38.36 120.18 38.36C119.061 38.3839 117.948 38.1938 116.9 37.8C116.027 37.438 115.243 36.8923 114.6 36.2C114 35.52 113.56 34.7 113.26 33.77C112.96 32.82 112.81 31.79 112.81 30.69V30.69ZM125.41 19.49L128.79 18.93V23.36H134V26.18H128.8V32.15C128.8 33.32 128.98 34.16 129.35 34.67C129.73 35.17 130.36 35.42 131.25 35.42C131.87 35.42 132.41 35.36 132.88 35.22C133.37 35.1 133.75 34.98 134.03 34.86L134.59 37.56C134.19 37.72 133.69 37.89 133.05 38.06C132.41 38.24 131.67 38.34 130.81 38.34C129.915 38.3648 129.023 38.2223 128.18 37.92C127.53 37.6742 126.957 37.2601 126.52 36.72C126.096 36.1433 125.803 35.4813 125.66 34.78C125.481 33.9251 125.393 33.0535 125.4 32.18V19.49H125.41ZM154.33 38C154.07 37.23 153.8 36.48 153.52 35.73C153.24 34.99 152.96 34.22 152.7 33.43H144.53C144.271 34.2106 144.001 34.9873 143.72 35.76L142.93 38H139.26C140.525 34.4042 141.852 30.8303 143.24 27.28C144.43 24.3566 145.69 21.4624 147.02 18.6H150.35C151.695 21.4516 152.945 24.3465 154.1 27.28C154.74 28.84 155.38 30.51 156.04 32.26C156.71 34.01 157.41 35.93 158.14 38H154.33V38ZM148.62 22.35C147.453 25.0532 146.385 27.7984 145.42 30.58H151.81C150.808 27.8119 149.741 25.0678 148.61 22.35H148.62ZM162.43 38C160.154 33.2933 158.3 28.3941 156.89 23.36H160.49L161.19 26.02L162.07 28.84C162.38 29.78 162.7 30.69 163.02 31.59L163.94 33.97C164.973 31.3651 165.881 28.712 166.66 26.02C166.94 25.06 167.18 24.18 167.39 23.36H170.89C169.467 28.3899 167.613 33.288 165.35 38H162.43ZM177.31 35.62C178.35 35.62 179.15 35.56 179.69 35.45V31.7C179.043 31.5162 178.372 31.4319 177.7 31.45C177.33 31.45 176.95 31.48 176.55 31.53C176.193 31.5826 175.846 31.687 175.52 31.84C175.22 31.99 174.97 32.2 174.79 32.48C174.6 32.75 174.51 33.08 174.51 33.49C174.51 34.29 174.76 34.85 175.26 35.17C175.891 35.4998 176.599 35.6551 177.31 35.62ZM177.03 22.99C177.991 22.9651 178.948 23.1072 179.86 23.41C180.546 23.6314 181.164 24.0254 181.654 24.5543C182.145 25.0831 182.491 25.729 182.66 26.43C182.86 27.15 182.96 27.93 182.96 28.79V37.66C182.44 37.78 181.65 37.91 180.58 38.06C179.54 38.22 178.35 38.31 177.03 38.31C176.15 38.31 175.35 38.22 174.63 38.06C173.955 37.9142 173.316 37.6354 172.75 37.24C172.24 36.859 171.829 36.3619 171.55 35.79C171.247 35.0936 171.1 34.3392 171.12 33.58C171.12 32.74 171.28 32.03 171.6 31.45C171.93 30.87 172.38 30.4 172.94 30.05C173.526 29.6638 174.181 29.3954 174.87 29.26C176.46 28.9078 178.109 28.9283 179.69 29.32V28.76C179.69 28.36 179.64 27.99 179.55 27.64C179.45 27.29 179.29 26.98 179.05 26.72C178.82 26.44 178.51 26.22 178.12 26.07C177.661 25.9079 177.176 25.8333 176.69 25.85C175.419 25.8495 174.155 26.0382 172.94 26.41L172.52 23.66C173.976 23.2045 175.494 22.9784 177.02 22.99H177.03ZM185.85 23.83C187.813 23.3009 189.837 23.0386 191.87 23.05C193.07 23.05 194.07 23.22 194.87 23.55C195.67 23.87 196.31 24.33 196.77 24.92C197.26 25.5 197.59 26.22 197.78 27.05C197.98 27.87 198.09 28.78 198.09 29.77V38H194.7V30.3C194.71 29.6327 194.653 28.966 194.53 28.31C194.44 27.75 194.27 27.31 194.03 26.97C193.81 26.61 193.49 26.37 193.08 26.21C192.615 26.0291 192.119 25.9441 191.62 25.96C191.19 25.96 190.74 25.99 190.28 26.04L189.24 26.18V38H185.85V23.83V23.83ZM207.7 39.1C208.3 39.38 208.71 39.7 208.94 40.05C209.18 40.41 209.3 40.85 209.3 41.37C209.3 42.02 209.02 42.58 208.46 43.05C207.9 43.52 207.06 43.75 205.94 43.75C205.04 43.75 204.24 43.63 203.56 43.39L203.96 41.37L204.68 41.57C204.98 41.64 205.28 41.67 205.6 41.67C205.92 41.67 206.16 41.62 206.33 41.51C206.418 41.4604 206.491 41.3876 206.54 41.2993C206.59 41.2111 206.614 41.111 206.61 41.01C206.61 40.71 206.48 40.48 206.21 40.33C205.96 40.205 205.703 40.0948 205.44 40L205.16 39.91C205.339 39.329 205.574 38.7664 205.86 38.23C204.968 38.0915 204.109 37.7862 203.33 37.33C202.638 36.9165 202.039 36.3651 201.57 35.71C201.095 35.0197 200.737 34.2562 200.51 33.45C200.28 32.61 200.17 31.69 200.17 30.7C200.17 29.62 200.34 28.61 200.67 27.68C200.98 26.7706 201.465 25.9312 202.1 25.21C202.74 24.52 203.5 23.98 204.4 23.59C205.3 23.19 206.3 23 207.42 23C208.8 23 210.12 23.25 211.34 23.76L210.61 26.53C209.691 26.1452 208.706 25.9447 207.71 25.94C206.38 25.94 205.37 26.36 204.68 27.2C203.98 28.02 203.64 29.19 203.64 30.7C203.64 32.16 203.97 33.32 204.62 34.17C205.28 35.01 206.38 35.43 207.92 35.43C209.004 35.4358 210.079 35.2391 211.09 34.85L211.57 37.65C211.23 37.81 210.74 37.96 210.08 38.09C209.43 38.22 208.75 38.31 208.04 38.35C207.913 38.5937 207.8 38.8441 207.7 39.1V39.1ZM218.08 35.63C219.13 35.63 219.92 35.57 220.46 35.46V31.7C219.813 31.5162 219.142 31.4319 218.47 31.45C218.1 31.45 217.72 31.48 217.33 31.53C216.97 31.5817 216.62 31.6861 216.29 31.84C215.99 31.99 215.75 32.2 215.56 32.48C215.37 32.75 215.28 33.08 215.28 33.49C215.28 34.29 215.53 34.85 216.04 35.17C216.668 35.4981 217.372 35.6533 218.08 35.62V35.63ZM217.8 23C218.761 22.9751 219.718 23.1172 220.63 23.42C221.316 23.6414 221.934 24.0354 222.424 24.5643C222.915 25.0931 223.261 25.739 223.43 26.44C223.63 27.16 223.73 27.94 223.73 28.8V37.67C223.22 37.79 222.43 37.92 221.36 38.07C220.31 38.23 219.13 38.32 217.8 38.32C216.92 38.32 216.12 38.23 215.4 38.07C214.725 37.9242 214.086 37.6454 213.52 37.25C213.01 36.869 212.599 36.3719 212.32 35.8C212.017 35.1036 211.87 34.3492 211.89 33.59C211.89 32.75 212.05 32.04 212.37 31.46C212.71 30.88 213.15 30.41 213.71 30.06C214.299 29.6726 214.958 29.4042 215.65 29.27C217.237 28.9193 218.883 28.9399 220.46 29.33V28.77C220.46 28.37 220.42 28 220.32 27.65C220.22 27.3 220.06 26.99 219.82 26.73C219.59 26.45 219.29 26.23 218.89 26.08C218.434 25.9191 217.953 25.8445 217.47 25.86C216.196 25.8585 214.928 26.0472 213.71 26.42L213.29 23.67C214.746 23.2145 216.264 22.9884 217.79 23H217.8ZM229.29 30.65C229.29 32.14 229.64 33.32 230.35 34.17C231.06 35.01 232.04 35.43 233.29 35.43C233.83 35.43 234.29 35.42 234.66 35.38C235.06 35.32 235.37 35.27 235.61 35.21V26.81C235.31 26.61 234.91 26.41 234.41 26.25C233.92 26.06 233.41 25.97 232.84 25.97C231.61 25.97 230.7 26.39 230.13 27.23C229.519 28.2624 229.227 29.4522 229.29 30.65V30.65ZM239 37.56C237.136 38.1072 235.203 38.38 233.26 38.37C232.1 38.37 231.06 38.2 230.16 37.84C229.276 37.5086 228.471 36.994 227.8 36.33C227.152 35.6362 226.649 34.8203 226.32 33.93C225.972 32.8996 225.803 31.8174 225.82 30.73C225.82 29.57 225.95 28.53 226.23 27.59C226.53 26.64 226.96 25.83 227.53 25.16C228.081 24.4947 228.779 23.9673 229.57 23.62C230.441 23.2324 231.387 23.0413 232.34 23.06C233.04 23.06 233.67 23.14 234.22 23.31C234.76 23.48 235.22 23.66 235.62 23.87V16.84L239 16.28V37.56V37.56ZM255.29 30.67C255.29 31.83 255.12 32.89 254.79 33.84C254.51 34.7356 254.036 35.5584 253.402 36.2498C252.767 36.9412 251.988 37.4842 251.12 37.84C250.26 38.22 249.31 38.4 248.26 38.4C247.22 38.4 246.26 38.22 245.41 37.84C244.55 37.47 243.81 36.94 243.19 36.27C242.554 35.5614 242.062 34.7362 241.74 33.84C241.4 32.89 241.24 31.84 241.24 30.67C241.24 29.52 241.4 28.47 241.74 27.54C242.028 26.6464 242.509 25.8269 243.148 25.1392C243.787 24.4516 244.57 23.9125 245.44 23.56C246.29 23.19 247.24 23 248.26 23C249.203 22.9911 250.138 23.1724 251.009 23.5333C251.88 23.8941 252.67 24.427 253.33 25.1C253.968 25.8076 254.454 26.6378 254.76 27.54C255.11 28.47 255.29 29.52 255.29 30.67V30.67ZM251.82 30.67C251.82 29.22 251.5 28.07 250.87 27.23C250.58 26.8139 250.19 26.4776 249.735 26.2522C249.281 26.0267 248.777 25.9194 248.27 25.94C247.14 25.94 246.27 26.37 245.63 27.23C244.964 28.2493 244.642 29.4546 244.71 30.67C244.71 32.15 245.01 33.32 245.63 34.17C245.927 34.587 246.323 34.924 246.781 35.1508C247.24 35.3777 247.748 35.4873 248.26 35.47C249.38 35.47 250.25 35.03 250.86 34.17C251.5 33.32 251.82 32.15 251.82 30.67V30.67Z" fill="#FAFAFA"/>
</g>
<defs>
<linearGradient id="paint0_linear" x1="24" y1="76" x2="26" y2="19.5" gradientUnits="userSpaceOnUse">
<stop stop-color="#F231A5"/>
<stop offset="1" stop-color="#FF66C2"/>
</linearGradient>
<clipPath id="clip0">
<rect width="256" height="56" fill="white"/>
</clipPath>
</defs>
</svg>
